<svg width="211" height="53" viewBox="0 0 211 53" fill="none" xmlns="http://www.w3.org/2000/svg">
<path d="M27.2573 51.4723C27.4516 50.6954 27.581 49.8537 27.7105 48.9473L27.7753 48.8826H28.1637L28.2285 48.9473L28.2932 50.6306C28.7464 50.9544 29.1349 51.2133 29.5234 51.2781C29.9118 51.3428 30.3003 51.4076 30.624 51.4076C31.6599 51.4076 32.4368 51.0839 32.9548 50.5012C33.4727 49.9185 33.7317 49.2063 33.7317 48.4941C33.7317 48.1056 33.667 47.7819 33.4727 47.5229C33.2785 47.264 33.0843 47.0697 32.8253 46.9403C32.5663 46.8108 32.1131 46.6813 31.4009 46.4871C30.624 46.2928 29.9766 46.0986 29.6528 45.9044C29.2644 45.7101 29.0054 45.3864 28.7464 44.9979C28.5522 44.6095 28.4227 44.1563 28.4227 43.5736C28.4227 42.7319 28.6817 42.0197 29.1349 41.3723C29.5881 40.7248 30.1708 40.2716 30.883 39.8832C31.5952 39.5595 32.3721 39.3652 33.2138 39.3652C34.0554 39.3652 34.7676 39.5595 35.415 39.8832L35.4798 40.0127C35.3503 40.5954 35.2208 41.3075 35.0913 42.2787L35.0266 42.3434H34.5734L34.5086 42.2787V40.9838C34.0554 40.4659 33.408 40.2069 32.5016 40.2069C31.9836 40.2069 31.4657 40.3364 31.0772 40.5306C30.624 40.7249 30.3003 41.0486 30.1061 41.5018C29.9118 41.955 29.7176 42.4082 29.7176 42.9261C29.7176 43.3793 29.7823 43.7678 29.9766 44.0268C30.1708 44.3505 30.365 44.5447 30.6887 44.6742C31.0125 44.8037 31.5304 44.9979 32.3073 45.1274C32.9548 45.2569 33.3432 45.3864 33.6022 45.4511C33.8612 45.5159 34.1202 45.7101 34.3791 45.9044C34.6381 46.0986 34.8323 46.3576 34.9618 46.6813C35.0913 47.005 35.1561 47.3287 35.1561 47.7172C35.1561 48.5588 34.8971 49.3358 34.3791 49.9832C33.8612 50.6306 33.2785 51.2133 32.5663 51.6018C31.8541 51.9903 31.0125 52.1845 30.0413 52.1845C29.0702 52.1845 28.2285 51.9903 27.3868 51.5371L27.2573 51.4723Z" fill="black"/>
<path d="M40.983 49.9185L41.0477 50.1127V50.2422C40.8535 50.4365 40.4003 50.7602 39.8823 51.1486C39.2996 51.5371 38.9112 51.7961 38.6522 51.9903C38.3932 52.1846 38.199 52.1846 38.0048 52.1846C37.8105 52.1846 37.681 52.1198 37.6163 51.9256C37.4868 51.7961 37.4868 51.5371 37.4868 51.2781C37.4868 50.9544 37.6163 50.307 37.8105 49.4653C38.0695 48.4294 38.3285 47.005 38.6522 45.1275L37.2278 45.1922L37.1631 45.1275V44.998L37.2278 44.9332C37.8753 44.739 38.3285 44.48 38.7169 44.2858C38.8464 43.7679 38.9759 42.7967 39.1701 41.3076C39.8176 41.0486 40.2708 40.8544 40.5298 40.6602L40.724 40.7896L40.4003 42.1493C40.3355 42.3435 40.206 43.0557 39.9471 44.4153C40.206 44.4153 40.4003 44.4153 40.5945 44.4153C41.1772 44.4153 41.5657 44.3505 41.8246 44.2858L41.8894 44.3506L41.6952 45.1922C41.5009 45.1922 40.8535 45.1922 39.8176 45.1275C39.1701 48.2352 38.8464 50.048 38.8464 50.566C38.8464 50.8249 38.9759 50.9544 39.1701 50.9544C39.2996 50.9544 39.4291 50.8897 39.6234 50.8249C39.8176 50.7602 40.1413 50.5012 40.5945 50.1775L40.9182 49.9185H40.983Z" fill="black"/>
<path d="M49.4642 50.1123L49.5289 50.3712L49.4642 50.5007C48.2341 51.5366 47.3924 52.0546 47.0039 52.0546C46.745 52.0546 46.5507 51.8603 46.5507 51.4719C46.5507 51.2776 46.5507 51.0834 46.6155 50.7597C46.6802 50.5007 46.6802 50.177 46.8097 49.8533L47.0039 48.9469L47.1334 48.4289H47.0687C46.227 49.6591 45.3853 50.5655 44.6732 51.2129C43.8962 51.8603 43.3783 52.1193 43.1193 52.1193C42.7308 52.1193 42.5366 51.6014 42.5366 50.6302C42.5366 49.9828 42.6014 49.3353 42.7956 48.4937C42.9898 47.7167 43.1841 47.0046 43.5078 46.2924C43.7668 45.6449 44.0257 45.1917 44.1552 44.9328C44.3494 44.7385 44.6084 44.4796 44.9969 44.2206C45.3853 43.9616 45.7738 43.7674 46.0975 43.5731C46.4212 43.4437 46.8097 43.3789 47.1982 43.3789C47.7161 43.3789 48.2341 43.5084 48.8168 43.7026L49.3995 43.3789L49.5937 43.5084C49.5937 43.5731 49.4642 44.0263 49.2052 44.8033L48.8168 46.2924L48.6225 47.134C48.493 47.7815 48.2988 48.3642 48.1693 49.0764C48.0398 49.7238 47.9751 50.177 47.9751 50.436C47.9751 50.695 48.0398 50.7597 48.2341 50.7597C48.3636 50.7597 48.493 50.695 48.6225 50.6302C48.8168 50.5655 49.0757 50.3065 49.5289 49.9828L49.4642 50.1123ZM48.0398 44.609C47.5866 44.4148 47.1334 44.2853 46.6155 44.2853C46.1623 44.2853 45.8386 44.3501 45.5148 44.5443C45.3853 44.609 45.2559 44.8033 45.1264 45.0622C44.9969 45.3212 44.8027 45.7097 44.6084 46.3571C44.4142 47.0046 44.1552 47.652 44.0257 48.4289C43.8962 49.2058 43.8315 49.7238 43.8315 50.177C43.8315 50.5007 43.8315 50.695 43.8962 50.8244C43.961 50.8892 44.0257 50.9539 44.1552 50.9539C44.3494 50.9539 44.8026 50.695 45.3853 50.1123C45.968 49.5296 46.486 48.8821 46.9392 48.1699C47.3924 47.4578 47.7161 46.4219 47.9751 45.1917L48.0398 44.609Z" fill="black"/>
<path d="M51.1475 52.054L51.0181 51.9245C51.4065 50.7591 51.7302 49.4642 52.054 47.9104C52.3777 46.4213 52.5072 45.4501 52.5072 45.0617C52.5072 44.8027 52.4424 44.738 52.2482 44.738C52.054 44.738 51.6007 44.9969 50.8886 45.4501H50.7591L50.6943 45.2559V45.1264C50.9533 44.9322 51.2123 44.7379 51.536 44.5437C51.8597 44.3495 52.1834 44.1552 52.5072 43.961C52.8309 43.7668 53.0251 43.702 53.1546 43.6373C53.2841 43.5726 53.3488 43.5726 53.4783 43.5726C53.6725 43.5726 53.7373 43.6373 53.802 43.7668C53.8668 43.8963 53.8668 44.0258 53.8668 44.0905C53.8668 44.3495 53.802 44.8674 53.6078 45.6444C53.5431 45.8386 53.4136 46.486 53.1546 47.5219H53.2193C53.6726 46.8097 54.1905 46.1623 54.7732 45.5149C55.4206 44.8674 56.0681 44.3495 56.7155 44.0258C57.3629 43.702 57.8809 43.5078 58.2046 43.5078C58.3988 43.5078 58.5283 43.5726 58.5931 43.6373C58.6578 43.7668 58.7226 43.8963 58.7226 44.0258C58.7226 44.4142 58.5283 45.3854 58.1399 46.9392C57.6219 49.011 57.2982 50.2412 57.2982 50.5649C57.2982 50.7591 57.3629 50.8886 57.5572 50.8886C57.7514 50.8886 58.2046 50.6296 59.0463 50.0469H59.111L59.1758 50.3059V50.4354C58.7873 50.6944 58.3988 51.0181 57.9456 51.3418C57.4924 51.6655 57.1687 51.8598 56.9097 51.9245C56.7155 51.9892 56.5213 52.054 56.3918 52.054C56.1976 52.054 56.0681 51.9893 56.0033 51.8598C55.9386 51.7303 55.8738 51.6008 55.8738 51.4066C55.8738 51.2123 55.9386 50.8886 56.0033 50.4354C56.0681 49.9822 56.2623 49.2053 56.586 48.0399C57.0392 46.4213 57.2335 45.3854 57.2335 45.0617C57.2335 44.738 57.104 44.6085 56.9097 44.6085C56.7803 44.6085 56.586 44.6732 56.3918 44.738C56.0033 44.9322 55.6149 45.1911 55.1617 45.5796C54.7085 45.9681 54.32 46.4213 53.9963 46.9392C53.6078 47.4572 53.3488 47.9751 53.1546 48.4931C52.9604 49.011 52.7661 49.5937 52.6366 50.2412C52.6366 50.3059 52.5072 50.8239 52.3777 51.6655C51.9245 51.8598 51.536 51.9245 51.1475 52.054Z" fill="black"/>
<path d="M68.4341 39.041L68.6283 39.2352C68.3693 40.4006 68.0456 41.825 67.7219 43.4436L66.686 48.3641C66.4918 49.2058 66.427 49.7885 66.3623 50.1122C66.3623 50.2417 66.3623 50.3064 66.3623 50.4359C66.3623 50.6949 66.427 50.8244 66.6213 50.8244C66.8155 50.8244 67.3334 50.5654 67.9809 49.9827H68.0456L68.1104 50.1769V50.3064C67.5924 50.7596 67.0097 51.1481 66.4918 51.5366C65.9738 51.925 65.5854 52.0545 65.3911 52.0545C65.2616 52.0545 65.1969 51.9898 65.0674 51.8603C64.9379 51.7308 64.9379 51.5366 64.9379 51.2776C64.9379 51.0834 65.0027 50.7596 65.0674 50.3064C65.1322 49.8532 65.3264 49.2058 65.5206 48.2346H65.4559C64.8084 49.2705 64.0963 50.1769 63.1898 50.9539C62.2834 51.7308 61.636 52.0545 61.1828 52.0545C60.9885 52.0545 60.8591 51.9898 60.7296 51.8603C60.6001 51.7308 60.5353 51.5366 60.4059 51.2128C60.2764 50.8891 60.2764 50.5654 60.2764 50.1769C60.2764 49.659 60.3411 49.0763 60.5353 48.2994C60.7296 47.5225 60.9238 46.875 61.1828 46.2923C61.4418 45.7096 61.7007 45.3212 61.9597 44.9974C62.2187 44.7385 62.5424 44.4147 62.9309 44.1558C63.3193 43.8968 63.7078 43.7026 63.9668 43.5731C64.2905 43.4436 64.5495 43.3788 64.8732 43.3788C65.1969 43.3788 65.7148 43.4436 66.3623 43.5731L66.8155 40.9186C66.8802 40.7244 66.8802 40.5301 66.8802 40.3359C66.8802 40.2064 66.8155 40.1417 66.7507 40.0769C66.686 40.0122 66.4918 40.0122 66.2975 40.0122H65.5854L65.5206 39.9474V39.7532L65.5854 39.6885C66.8155 39.559 67.7219 39.3 68.4341 39.041ZM66.3623 44.6737C65.8443 44.4147 65.2616 44.2205 64.6789 44.2205C64.2905 44.2205 64.0315 44.2853 63.7725 44.35C63.5136 44.4147 63.3841 44.5442 63.2546 44.6737C63.1251 44.8032 62.9956 45.0622 62.8014 45.4506C62.6071 45.8391 62.4129 46.2923 62.2834 46.875C62.0892 47.4577 61.9597 47.9757 61.895 48.5584C61.8302 49.141 61.7655 49.5942 61.7655 50.1122C61.7655 50.4359 61.7655 50.6301 61.8302 50.7596C61.895 50.8891 62.0245 50.9539 62.1539 50.9539C62.3482 50.9539 62.6719 50.8244 63.1251 50.5654C63.7725 50.1769 64.2905 49.659 64.8084 49.0116C65.3264 48.3641 65.6501 47.6519 65.9091 46.875C65.9091 46.4218 66.1033 45.7096 66.3623 44.6737Z" fill="black"/>
<path d="M76.2684 50.1123L76.3332 50.3712L76.2684 50.5007C75.0383 51.5366 74.1966 52.0546 73.8081 52.0546C73.5492 52.0546 73.3549 51.8603 73.3549 51.4719C73.3549 51.2776 73.3549 51.0834 73.4197 50.7597C73.4844 50.5007 73.4844 50.177 73.6139 49.8533L73.8081 48.9469L73.9376 48.4289H73.8729C73.0312 49.6591 72.1895 50.5655 71.4774 51.2129C70.7004 51.8603 70.1825 52.1193 69.9235 52.1193C69.5351 52.1193 69.3408 51.6014 69.3408 50.6302C69.3408 49.9828 69.4056 49.3353 69.5998 48.4937C69.794 47.7167 69.9883 47.0046 70.312 46.2924C70.571 45.6449 70.8299 45.1917 70.9594 44.9328C71.1536 44.7385 71.4126 44.4796 71.8011 44.2206C72.1895 43.9616 72.578 43.7674 72.9017 43.5731C73.2254 43.4437 73.6139 43.3789 74.0024 43.3789C74.5203 43.3789 75.0383 43.5084 75.621 43.7026L76.2037 43.3789L76.3979 43.5084C76.3979 43.5731 76.2684 44.0263 76.0094 44.8033L75.621 46.2924L75.4267 47.134C75.2973 47.7815 75.103 48.3642 74.9735 49.0764C74.844 49.7238 74.7793 50.177 74.7793 50.436C74.7793 50.695 74.844 50.7597 75.0383 50.7597C75.1678 50.7597 75.2973 50.695 75.4267 50.6302C75.621 50.5655 75.8799 50.3065 76.3332 49.9828L76.2684 50.1123ZM74.7793 44.609C74.3261 44.4148 73.8729 44.2853 73.3549 44.2853C72.9017 44.2853 72.578 44.3501 72.2543 44.5443C72.1248 44.609 71.9953 44.8033 71.8658 45.0622C71.7363 45.3212 71.5421 45.7097 71.3479 46.3571C71.1537 47.0046 70.8947 47.652 70.7652 48.4289C70.6357 49.2058 70.571 49.7238 70.571 50.177C70.571 50.5007 70.571 50.695 70.6357 50.8244C70.7004 50.8892 70.7652 50.9539 70.8947 50.9539C71.0889 50.9539 71.5421 50.695 72.1248 50.1123C72.7075 49.5296 73.2254 48.8821 73.6787 48.1699C74.1319 47.4578 74.4556 46.4219 74.7146 45.1917L74.7793 44.609Z" fill="black"/>
<path d="M77.8866 52.1187L77.7571 51.9893C78.1456 50.6296 78.534 49.27 78.793 47.8456C79.052 46.4213 79.1815 45.4501 79.1815 45.0617C79.1815 44.8027 79.1167 44.6732 78.9872 44.6732C78.793 44.6732 78.3398 44.9322 77.5629 45.4501H77.4334L77.3687 45.2559V45.1264C77.8866 44.7379 78.4046 44.3495 78.9872 44.0258C79.5699 43.702 79.9584 43.5078 80.2174 43.5078C80.4764 43.5078 80.5411 43.6373 80.5411 43.961C80.5411 44.2847 80.3469 45.4501 79.8937 47.3277C80.4116 46.3565 80.9943 45.5796 81.4475 44.9322C81.9655 44.2847 82.3539 43.8963 82.5482 43.702C82.8071 43.5726 83.0014 43.5078 83.2603 43.5078C83.3898 43.5078 83.4546 43.5078 83.5841 43.5726L83.6488 43.6373C83.5841 43.961 83.4546 44.5437 83.3251 45.5149L83.0661 45.5796C82.8719 45.3206 82.6776 45.2559 82.4834 45.2559C82.2892 45.2559 82.0949 45.3206 81.9007 45.4501C81.6417 45.5796 81.3828 45.8386 81.059 46.2918C80.7353 46.6803 80.4116 47.1335 80.1526 47.6514C79.8937 48.1694 79.6994 48.7521 79.5699 49.3348C79.4404 49.9174 79.2462 50.8239 78.9872 51.9245C78.4693 51.9245 78.0808 52.054 77.8866 52.1187Z" fill="black"/>
<path d="M92.2598 39.041L92.454 39.2352C92.195 40.4006 91.8713 41.825 91.5476 43.4436L90.5117 48.3641C90.3175 49.2058 90.2527 49.7885 90.188 50.1122C90.188 50.2417 90.188 50.3064 90.188 50.4359C90.188 50.6949 90.2527 50.8244 90.4469 50.8244C90.6412 50.8244 91.1591 50.5654 91.8066 49.9827H91.8713L91.9361 50.1769V50.3064C91.4181 50.7596 90.8354 51.1481 90.3175 51.5366C89.7995 51.925 89.411 52.0545 89.2168 52.0545C89.0873 52.0545 89.0226 51.9898 88.8931 51.8603C88.7636 51.7308 88.7636 51.5366 88.7636 51.2776C88.7636 51.0834 88.8283 50.7596 88.8931 50.3064C88.9578 49.8532 89.1521 49.2058 89.3463 48.2346H89.2816C88.6341 49.2705 87.9219 50.1769 87.0155 50.9539C86.1091 51.7308 85.4617 52.0545 85.0085 52.0545C84.8142 52.0545 84.6847 51.9898 84.5553 51.8603C84.4258 51.7308 84.361 51.5366 84.2315 51.2128C84.102 50.8891 84.1021 50.5654 84.1021 50.1769C84.1021 49.659 84.1668 49.0763 84.361 48.2994C84.5553 47.5225 84.7495 46.875 85.0085 46.2923C85.2674 45.7096 85.5264 45.3212 85.7854 44.9974C86.0444 44.7385 86.3681 44.4147 86.7566 44.1558C87.145 43.8968 87.5335 43.7026 87.7924 43.5731C88.1162 43.4436 88.3751 43.3788 88.6989 43.3788C89.0226 43.3788 89.5405 43.4436 90.188 43.5731L90.6412 40.9186C90.7059 40.7244 90.7059 40.5301 90.7059 40.3359C90.7059 40.2064 90.6412 40.1417 90.5764 40.0769C90.5117 40.0122 90.3175 40.0122 90.1232 40.0122H89.411L89.3463 39.9474V39.7532L89.411 39.6885C90.5764 39.559 91.4828 39.3 92.2598 39.041ZM90.1232 44.6737C89.6053 44.4147 89.0226 44.2205 88.4399 44.2205C88.0514 44.2205 87.7924 44.2853 87.5335 44.35C87.2745 44.4147 87.145 44.5442 87.0155 44.6737C86.886 44.8032 86.7565 45.0622 86.5623 45.4506C86.3681 45.8391 86.1739 46.2923 86.0444 46.875C85.8501 47.4577 85.7206 47.9757 85.6559 48.5584C85.5912 49.141 85.5264 49.5942 85.5264 50.1122C85.5264 50.4359 85.5264 50.6301 85.5912 50.7596C85.6559 50.8891 85.7854 50.9539 85.9149 50.9539C86.1091 50.9539 86.4328 50.8244 86.886 50.5654C87.5335 50.1769 88.0514 49.659 88.5694 49.0116C89.0873 48.3641 89.411 47.6519 89.67 46.875C89.7348 46.4218 89.8642 45.7096 90.1232 44.6737Z" fill="black"/>
<path d="M98.0869 51.4723C98.2811 50.6954 98.4106 49.8537 98.5401 48.9473L98.6049 48.8826H98.9933L99.0581 48.9473L99.1228 50.6306C99.576 50.9544 99.9645 51.2133 100.353 51.2781C100.741 51.3428 101.13 51.4076 101.454 51.4076C102.489 51.4076 103.266 51.0839 103.784 50.5012C104.302 49.9185 104.561 49.2063 104.561 48.4941C104.561 48.1056 104.497 47.7819 104.302 47.5229C104.108 47.264 103.914 47.0697 103.655 46.9403C103.396 46.8108 102.943 46.6813 102.231 46.4871C101.454 46.2928 100.806 46.0986 100.482 45.9044C100.094 45.7101 99.835 45.3864 99.576 44.9979C99.3818 44.6095 99.2523 44.1563 99.2523 43.5736C99.2523 42.7319 99.5113 42.0197 99.9645 41.3723C100.418 40.7248 101 40.2716 101.713 39.8832C102.425 39.5595 103.202 39.3652 104.043 39.3652C104.885 39.3652 105.597 39.5595 106.245 39.8832L106.309 40.0127C106.18 40.5954 106.05 41.3075 105.921 42.2787L105.856 42.3434H105.468L105.403 42.2787V40.9838C104.95 40.4659 104.302 40.2069 103.396 40.2069C102.878 40.2069 102.36 40.3364 101.972 40.5306C101.518 40.7249 101.195 41.0486 101 41.5018C100.806 41.955 100.612 42.4082 100.612 42.9261C100.612 43.3793 100.677 43.7678 100.871 44.0268C101.065 44.3505 101.259 44.5447 101.583 44.6742C101.907 44.8037 102.425 44.9979 103.202 45.1274C103.849 45.2569 104.238 45.3864 104.497 45.4511C104.756 45.5159 105.014 45.7101 105.273 45.9044C105.532 46.0986 105.727 46.3576 105.856 46.6813C105.986 47.005 106.05 47.3287 106.05 47.7172C106.05 48.5588 105.791 49.3358 105.273 49.9832C104.756 50.6306 104.173 51.2133 103.461 51.6018C102.748 51.9903 101.907 52.1845 100.936 52.1845C99.9645 52.1845 99.1228 51.9903 98.2811 51.5371L98.0869 51.4723Z" fill="black"/>
<path d="M107.993 52.054L107.863 51.9245L108.381 50.1117C108.576 49.4642 108.705 48.7521 108.899 48.0399C109.029 47.263 109.158 46.6803 109.223 46.1623C109.288 45.6444 109.353 45.3206 109.353 45.1912C109.353 44.8674 109.288 44.738 109.094 44.738C109.029 44.738 108.899 44.8027 108.705 44.8674C108.576 44.9322 108.252 45.1264 107.799 45.3854L107.669 45.3206L107.604 45.1264V44.9969C108.964 43.961 109.871 43.5078 110.324 43.5078C110.583 43.5078 110.712 43.6373 110.712 43.961C110.712 44.0905 110.712 44.22 110.647 44.4142C110.583 44.6085 110.453 45.5149 110.129 47.0687C110.906 45.9033 111.748 45.0617 112.59 44.4142C113.431 43.8315 114.144 43.5078 114.662 43.5078C114.921 43.5078 115.115 43.6373 115.115 43.8963C115.115 44.1553 115.115 44.4142 115.05 44.738C114.985 45.0617 114.791 45.8386 114.532 47.0687C115.374 45.9033 116.28 44.9969 117.187 44.4142C118.158 43.7668 118.87 43.5078 119.388 43.5078C119.647 43.5078 119.841 43.6373 119.841 43.961C119.841 44.3495 119.582 45.6444 118.999 47.7809C118.546 49.3995 118.352 50.3707 118.352 50.6944C118.352 50.9534 118.417 51.0828 118.611 51.0828C118.676 51.0828 118.805 51.0181 118.999 50.9533C119.129 50.8886 119.517 50.6296 120.035 50.3059L120.1 50.3707L120.165 50.5649V50.6944C119.906 50.8886 119.517 51.1476 119.064 51.4713C118.611 51.795 118.287 51.9893 118.028 52.1187C117.769 52.2482 117.575 52.2482 117.446 52.2482C117.251 52.2482 117.122 52.1835 117.057 52.054C116.928 51.9245 116.928 51.795 116.928 51.6008C116.928 51.4066 116.928 51.2771 116.992 51.1476C117.057 51.0181 117.122 50.6944 117.251 50.1764C117.446 49.4642 117.705 48.4931 117.963 47.3277C118.222 46.1623 118.352 45.3854 118.352 45.0617C118.352 44.9322 118.352 44.8674 118.287 44.8027C118.222 44.7379 118.158 44.738 118.093 44.738C117.963 44.738 117.705 44.8027 117.316 44.9969C116.992 45.1912 116.539 45.5149 116.151 45.9681C115.697 46.4213 115.309 46.8745 115.05 47.3277C114.791 47.7809 114.532 48.3636 114.338 49.011C114.144 49.6585 113.949 50.6944 113.69 51.9245C113.431 51.9892 113.043 52.054 112.46 52.1835L112.331 52.054C112.784 50.4354 113.172 48.9463 113.367 47.7162C113.626 46.4213 113.755 45.5796 113.755 45.1264C113.755 44.8674 113.69 44.738 113.496 44.738C113.302 44.738 113.108 44.8027 112.719 44.9969C112.396 45.1912 112.007 45.5149 111.489 46.0328C111.036 46.5508 110.647 47.1335 110.324 47.7162C110 48.2989 109.806 49.0758 109.612 49.9175C109.417 50.7591 109.288 51.4066 109.223 51.8598C108.77 51.8598 108.381 51.9245 107.993 52.054Z" fill="black"/>
<path d="M128.257 50.1123L128.322 50.3712L128.257 50.5007C127.027 51.5366 126.185 52.0546 125.797 52.0546C125.538 52.0546 125.344 51.8603 125.344 51.4719C125.344 51.2776 125.344 51.0834 125.408 50.7597C125.473 50.5007 125.473 50.177 125.603 49.8533L125.797 48.9469L125.926 48.4289H125.862C125.02 49.6591 124.178 50.5655 123.466 51.2129C122.689 51.8603 122.171 52.1193 121.912 52.1193C121.524 52.1193 121.33 51.6014 121.33 50.6302C121.33 49.9828 121.394 49.3353 121.589 48.4937C121.783 47.7167 121.977 47.0046 122.301 46.2924C122.56 45.6449 122.819 45.1917 122.948 44.9328C123.078 44.6738 123.401 44.4796 123.79 44.2206C124.178 43.9616 124.567 43.7674 124.89 43.5731C125.214 43.4437 125.603 43.3789 125.991 43.3789C126.509 43.3789 127.027 43.5084 127.61 43.7026L128.192 43.3789L128.387 43.5084C128.387 43.5731 128.257 44.0263 127.998 44.8033L127.61 46.2924L127.416 47.134C127.286 47.7815 127.092 48.3642 126.962 49.0764C126.833 49.7238 126.768 50.177 126.768 50.436C126.768 50.695 126.833 50.7597 127.027 50.7597C127.157 50.7597 127.286 50.695 127.416 50.6302C127.61 50.5655 127.869 50.3065 128.322 49.9828L128.257 50.1123ZM126.833 44.609C126.38 44.4148 125.926 44.2853 125.408 44.2853C124.955 44.2853 124.632 44.3501 124.308 44.5443C124.178 44.609 124.049 44.8033 123.919 45.0622C123.79 45.3212 123.596 45.7097 123.401 46.3571C123.207 47.0046 122.948 47.652 122.819 48.4289C122.689 49.1411 122.624 49.7238 122.624 50.177C122.624 50.5007 122.624 50.695 122.689 50.8244C122.754 50.8892 122.819 50.9539 122.948 50.9539C123.142 50.9539 123.596 50.695 124.178 50.1123C124.761 49.5296 125.279 48.8821 125.732 48.1699C126.121 47.4578 126.509 46.4219 126.768 45.1917L126.833 44.609Z" fill="black"/>
<path d="M129.941 52.1187L129.811 51.9893C130.2 50.6296 130.588 49.27 130.847 47.8456C131.106 46.4213 131.236 45.4501 131.236 45.0617C131.236 44.8027 131.171 44.6732 131.041 44.6732C130.847 44.6732 130.394 44.9322 129.617 45.4501H129.488L129.423 45.2559V45.1264C129.941 44.7379 130.459 44.3495 131.041 44.0258C131.624 43.702 132.013 43.5078 132.272 43.5078C132.531 43.5078 132.595 43.6373 132.595 43.961C132.595 44.2847 132.401 45.4501 131.948 47.3277C132.466 46.3565 132.984 45.5796 133.502 44.9322C134.02 44.2847 134.408 43.8963 134.602 43.702C134.797 43.5078 135.056 43.5078 135.315 43.5078C135.444 43.5078 135.509 43.5078 135.638 43.5726L135.703 43.6373C135.638 43.961 135.509 44.5437 135.379 45.5149L135.12 45.5796C134.926 45.3206 134.732 45.2559 134.538 45.2559C134.343 45.2559 134.149 45.3206 133.955 45.4501C133.696 45.5796 133.437 45.8386 133.113 46.2918C132.79 46.6803 132.466 47.1335 132.207 47.6514C131.948 48.1694 131.754 48.7521 131.624 49.3348C131.495 49.9174 131.3 50.8239 131.041 51.9245C130.523 51.9245 130.135 52.054 129.941 52.1187Z" fill="black"/>
<path d="M140.624 49.9185L140.688 50.1127V50.2422C140.429 50.4365 140.041 50.7602 139.523 51.1486C138.94 51.5371 138.552 51.7961 138.293 51.9903C138.034 52.1846 137.84 52.1846 137.645 52.1846C137.451 52.1846 137.322 52.1198 137.257 51.9256C137.127 51.7961 137.127 51.5371 137.127 51.2781C137.127 50.9544 137.257 50.307 137.451 49.4653C137.645 48.4294 137.969 47.005 138.293 45.1275L136.868 45.1922L136.804 45.1275V44.998L136.868 44.9332C137.516 44.739 137.969 44.48 138.358 44.2858C138.487 43.7679 138.617 42.7967 138.811 41.3076C139.458 41.0486 139.911 40.8544 140.17 40.6602L140.365 40.7896L140.041 42.1493C139.976 42.3435 139.847 43.0557 139.588 44.4153C139.847 44.4153 140.041 44.4153 140.235 44.4153C140.818 44.4153 141.206 44.3505 141.465 44.2858L141.53 44.3506L141.336 45.1922C141.142 45.1922 140.494 45.1922 139.458 45.1275C138.811 48.2352 138.487 50.048 138.487 50.566C138.487 50.8249 138.617 50.9544 138.811 50.9544C138.94 50.9544 139.07 50.8897 139.264 50.8249C139.458 50.7602 139.782 50.5012 140.235 50.1775L140.559 49.9185H140.624Z" fill="black"/>
<path d="M146.709 51.9249L146.645 51.8602L146.709 51.4717L146.774 51.407C147.098 51.3422 147.292 51.2775 147.357 51.2775C147.421 51.2775 147.486 51.2128 147.551 51.0833C147.616 51.0185 147.68 50.8243 147.745 50.5006C147.81 50.2416 148.004 49.2057 148.328 47.5871L148.846 44.6089L149.17 42.7313C149.364 41.4365 149.429 40.7243 149.429 40.53C149.429 40.4006 149.429 40.2711 149.364 40.2063C149.299 40.1416 149.17 40.1416 148.975 40.0768C148.781 40.0768 148.457 40.0121 148.004 40.0121L147.939 39.9473L148.004 39.5589L148.069 39.4941C148.781 39.5589 149.623 39.5589 150.659 39.5589C151.436 39.5589 152.018 39.5589 152.471 39.4941L152.536 39.5589L152.471 39.9473L152.407 40.0121C151.695 40.0768 151.306 40.1416 151.241 40.1416C151.177 40.1416 151.112 40.2063 151.047 40.2711C150.982 40.3358 150.982 40.4006 150.918 40.4653C150.853 40.7243 150.659 41.5012 150.4 42.9256L149.364 49.0762C149.234 49.9826 149.17 50.6301 149.105 51.0833C149.752 51.148 150.335 51.2128 150.918 51.2128C151.63 51.2128 152.212 51.2128 152.666 51.2128C153.119 51.2128 153.443 51.148 153.702 51.0833C153.961 51.0185 154.09 51.0185 154.155 50.9538C154.22 50.889 154.284 50.8243 154.284 50.7596C154.349 50.6948 154.414 50.5006 154.479 50.1769L154.802 49.0762L154.867 49.0115H155.255L155.32 49.0762C155.126 50.4358 154.932 51.407 154.932 51.9249L154.867 51.9897L151.824 51.9249H147.81C147.486 51.8602 147.098 51.8602 146.709 51.9249Z" fill="black"/>
<path d="M163.478 50.1123L163.543 50.3712L163.478 50.5007C162.248 51.5366 161.407 52.0546 161.018 52.0546C160.759 52.0546 160.565 51.8603 160.565 51.4719C160.565 51.2776 160.565 51.0834 160.63 50.7597C160.694 50.5007 160.694 50.177 160.824 49.8533L161.018 48.9469L161.148 48.4289H161.083C160.241 49.6591 159.4 50.5655 158.687 51.2129C157.91 51.8603 157.392 52.1193 157.133 52.1193C156.745 52.1193 156.551 51.6014 156.551 50.6302C156.551 49.9828 156.616 49.3353 156.81 48.4937C157.004 47.7167 157.198 47.0046 157.522 46.2924C157.781 45.6449 158.04 45.1917 158.169 44.9328C158.299 44.6738 158.623 44.4796 159.011 44.2206C159.4 43.9616 159.788 43.7674 160.112 43.5731C160.435 43.4437 160.824 43.3789 161.212 43.3789C161.73 43.3789 162.248 43.5084 162.831 43.7026L163.414 43.3789L163.608 43.5084C163.608 43.5731 163.478 44.0263 163.219 44.8033L162.831 46.2924L162.637 47.134C162.507 47.7815 162.313 48.3642 162.183 49.0764C162.054 49.7238 161.989 50.177 161.989 50.436C161.989 50.695 162.054 50.7597 162.248 50.7597C162.378 50.7597 162.507 50.695 162.637 50.6302C162.831 50.5655 163.09 50.3065 163.543 49.9828L163.478 50.1123ZM161.989 44.609C161.536 44.4148 161.083 44.2853 160.565 44.2853C160.112 44.2853 159.788 44.3501 159.464 44.5443C159.335 44.609 159.205 44.8033 159.076 45.0622C158.946 45.3212 158.752 45.7097 158.558 46.3571C158.364 47.0046 158.105 47.652 157.975 48.4289C157.846 49.1411 157.781 49.7238 157.781 50.177C157.781 50.5007 157.781 50.695 157.846 50.8244C157.91 50.8892 157.975 50.9539 158.105 50.9539C158.299 50.9539 158.752 50.695 159.335 50.1123C159.917 49.5296 160.435 48.8821 160.889 48.1699C161.277 47.4578 161.666 46.4219 161.925 45.1917L161.989 44.609Z" fill="black"/>
<path d="M167.816 39.041L168.01 39.2352L167.428 42.0192L166.521 46.2276C167.298 45.1917 168.01 44.4795 168.722 44.091C169.435 43.7026 170.017 43.4436 170.535 43.4436C170.794 43.4436 170.988 43.5083 171.118 43.6378C171.247 43.7673 171.377 43.9615 171.442 44.2853C171.506 44.609 171.571 44.9327 171.571 45.3212C171.571 46.1628 171.442 47.0045 171.183 47.7814C170.924 48.5584 170.6 49.2058 170.276 49.659C169.953 50.1122 169.629 50.5654 169.176 50.8891C168.722 51.2128 168.334 51.5366 167.816 51.7955C167.298 52.0545 166.845 52.184 166.392 52.184C165.874 52.184 165.485 52.0545 165.162 51.7955C164.838 51.5366 164.644 51.1481 164.644 50.7596C164.644 50.5007 164.773 49.8532 164.967 48.7526L165.55 45.6449C165.679 44.9974 165.809 44.35 165.938 43.6378L166.262 41.7603C166.392 41.2423 166.392 40.9186 166.392 40.8538C166.392 40.7891 166.392 40.7244 166.392 40.6596C166.392 40.5301 166.327 40.4006 166.262 40.4006C166.197 40.3359 166.003 40.3359 165.809 40.3359H165.097L165.032 40.2711V40.0769L165.097 40.0122C166.197 39.559 167.104 39.3 167.816 39.041ZM165.874 50.0475C165.874 50.4359 166.003 50.7596 166.197 51.0186C166.392 51.2776 166.715 51.4071 167.233 51.4071C167.881 51.4071 168.399 51.0834 168.852 50.5007C169.305 49.918 169.629 49.141 169.888 48.2346C170.147 47.3282 170.341 46.5513 170.341 45.9039C170.341 45.2564 170.276 44.868 170.147 44.6737C170.017 44.4795 169.823 44.4148 169.629 44.4148C169.24 44.4148 168.852 44.5442 168.399 44.8032C167.945 45.0622 167.557 45.5154 167.104 46.0981C166.651 46.6808 166.392 47.393 166.197 48.2346C166.003 49.141 165.874 49.7237 165.874 50.0475Z" fill="black"/>
<path d="M178.175 49.9828L178.24 50.177V50.3065C176.815 51.5366 175.585 52.1193 174.614 52.1193C174.29 52.1193 173.967 52.0546 173.643 51.8603C173.319 51.6661 173.06 51.4071 172.866 51.0834C172.672 50.7597 172.607 50.3065 172.607 49.7885C172.607 49.0764 172.736 48.2994 172.995 47.4578C173.254 46.6161 173.449 46.0334 173.708 45.6449C173.967 45.2565 174.29 44.868 174.808 44.5443C175.261 44.2206 175.779 43.8969 176.168 43.7026C176.556 43.5084 177.01 43.3789 177.398 43.3789C177.851 43.3789 178.175 43.5084 178.499 43.7026C178.758 43.9616 178.887 44.2853 178.887 44.6738C178.887 45.127 178.758 45.5802 178.499 45.9687C178.24 46.3571 177.722 46.7456 177.01 47.0693C176.297 47.393 175.456 47.7167 174.484 47.911L174.096 47.9757C173.967 48.5584 173.902 49.0116 173.902 49.4001C173.902 49.918 174.031 50.3065 174.226 50.6302C174.485 50.9539 174.808 51.0834 175.197 51.0834C175.974 51.0834 176.945 50.6302 178.045 49.7885L178.175 49.9828ZM174.161 47.7167C174.743 47.5873 175.326 47.4578 175.909 47.1988C176.427 46.9398 176.88 46.6808 177.204 46.2276C177.527 45.7744 177.657 45.4507 177.657 44.9975C177.657 44.6738 177.592 44.4795 177.398 44.2853C177.268 44.1558 177.074 44.0911 176.815 44.0911C176.556 44.0911 176.297 44.1558 175.974 44.2853C175.65 44.4148 175.326 44.6738 175.132 45.0622C174.873 45.4507 174.549 46.3571 174.161 47.7167Z" fill="black"/>
<path d="M183.419 39.041L183.678 39.2352C183.419 40.2064 182.966 42.4077 182.254 45.9039C181.736 48.3641 181.412 49.8532 181.348 50.3712C181.348 50.5007 181.348 50.5654 181.348 50.6301C181.348 50.7596 181.348 50.8244 181.412 50.8891C181.477 50.9539 181.542 51.0186 181.606 51.0186C181.801 51.0186 182.189 50.7596 182.837 50.3064L183.096 50.1122H183.16L183.225 50.3712V50.5007C181.801 51.6013 180.894 52.184 180.376 52.184C180.182 52.184 180.053 52.1193 179.988 51.9898C179.923 51.8603 179.858 51.6661 179.858 51.4718C179.858 51.2128 179.923 50.8891 179.988 50.5654C180.053 50.2417 180.312 49.0116 180.765 47.0692C181.153 45.1917 181.477 43.7673 181.606 42.8609L181.93 41.1128C181.995 40.8538 181.995 40.7244 181.995 40.5949C181.995 40.4654 181.93 40.3359 181.865 40.3359C181.801 40.2711 181.606 40.2711 181.412 40.2711H180.7L180.635 40.2064V40.0122L180.7 39.9474C181.801 39.559 182.707 39.3 183.419 39.041Z" fill="black"/>
<path d="M43.3783 14.6965C44.6732 14.1138 47.4572 11.9773 47.4572 8.09268C47.4572 3.30164 44.2848 0.0644531 38.1988 0.0644531H27.5161V23.3722H34.5084V15.603H36.3213L40.0764 23.3722H47.9751L43.3783 14.6965ZM37.0982 10.8119H34.5084V5.17921H37.0982C38.5873 5.17921 40.0117 6.15036 40.0117 8.02793C40.0117 9.9055 38.652 10.8119 37.0982 10.8119Z" fill="#2E3192"/>
<path d="M17.4161 17.4805H5.69745V5.7619H17.4161V17.4805H23.1783V5.04972V0.776629C23.1783 0.388166 22.8546 0.0644531 22.4661 0.0644531H18.6462H18.5815H4.59681H4.53207H0.712182C0.323719 0.0644531 0 0.388166 0 0.776629V5.04972V18.2575V22.5305C0 22.919 0.323719 23.2427 0.712182 23.2427H4.66155H17.4808V17.4805H17.4161Z" fill="#2E3192"/>
<path d="M23.8905 18.9688H23.1784H19.6175C19.229 18.9688 18.9053 19.2925 18.9053 19.6809V23.2418V23.954C18.9053 24.3425 19.229 24.6662 19.6175 24.6662H23.8905C24.279 24.6662 24.6027 24.3425 24.6027 23.954V19.6809C24.6675 19.2925 24.3438 18.9688 23.8905 18.9688Z" fill="#2E3192"/>
<path d="M73.7432 4.66016C67.1394 4.66016 65.456 8.22106 65.3913 11.1345H71.8657C71.8657 10.2281 72.5778 9.51594 73.6785 9.51594C74.7144 9.51594 75.4266 10.0986 75.4266 11.0698V12.4294H71.4772C67.1394 12.4294 64.8086 14.6307 64.8086 18.0621C64.8086 21.623 67.3336 23.6301 70.8945 23.6301C73.6138 23.6301 74.9734 22.3352 75.4266 21.2346H75.7503V23.3711H82.2247V11.3288C82.2247 6.40824 78.4695 4.66016 73.7432 4.66016ZM75.4266 17.4147C75.4266 18.3858 74.3907 19.0333 73.4195 19.0333C72.4484 19.0333 71.542 18.4506 71.542 17.4147C71.542 16.4435 72.3836 15.7961 73.6138 15.7961H75.3618V17.4147H75.4266Z" fill="black"/>
<path d="M97.763 4.79104C95.1733 4.79104 93.2957 5.95643 92.6483 7.89874H92.3246V0H85.397V23.3078H92.3246V20.3295H92.6483C93.2957 22.2071 95.1733 23.4372 97.763 23.4372C101.777 23.4372 104.302 20.459 104.302 14.7616V13.402C104.302 7.70451 101.777 4.79104 97.763 4.79104ZM97.1156 14.6321C97.1156 17.0924 96.1444 18.2577 94.7201 18.2577C93.3605 18.2577 92.3246 17.0924 92.3246 14.6321V13.5962C92.3246 11.1359 93.3605 9.97054 94.7201 9.97054C96.1444 9.97054 97.1156 11.1359 97.1156 13.5962V14.6321Z" fill="black"/>
<path d="M115.179 4.5957C110.324 4.5957 106.115 7.37968 106.115 13.5951V14.6957C106.115 20.9111 110 23.7599 115.438 23.7599C121.654 23.7599 124.049 19.8105 124.049 17.0265H117.899C117.899 18.1919 116.733 18.8393 115.374 18.8393C114.079 18.8393 112.849 17.9977 112.849 16.3143V15.5374H124.114V13.5951C124.114 7.89763 120.488 4.5957 115.179 4.5957ZM112.849 11.9117C112.849 10.3579 113.82 9.32199 115.244 9.32199C116.668 9.32199 117.51 10.3579 117.51 11.9117H112.849Z" fill="black"/>
<path d="M141.595 15.3438C139.135 15.3438 137.127 16.8976 137.127 19.5521C137.127 22.2066 139.135 23.7604 141.595 23.7604C144.055 23.7604 146.062 22.2713 146.062 19.5521C146.062 16.9623 144.055 15.3438 141.595 15.3438Z" fill="black"/>
<path d="M163.219 11.3299H162.96L154.997 0.0644531H149.623V23.3722H156.227V11.8478H156.486L164.514 23.3722H169.823V0.0644531H163.219V11.3299Z" fill="black"/>
<path d="M173.772 23.3722H190.412V17.869H180.83V14.2433H189.764V9.25807H180.83V5.56768H190.412V0.0644531H173.772V23.3722Z" fill="black"/>
<path d="M191.965 0.0644531V5.7619H197.857V23.3722H205.044V5.7619H211V0.0644531H191.965Z" fill="black"/>
<path d="M124.178 0V5.82694H126.768V23.3725H133.76V0H124.178Z" fill="black"/>
<path d="M56.3378 23.3725H58.9923H61.5821V17.5456H58.9923V0H52V23.3725H56.3378Z" fill="black"/>
</svg>
